<?xml version="1.0" standalone="no"?>
<!DOCTYPE svg PUBLIC "-//W3C//DTD SVG 20010904//EN"
 "http://www.w3.org/TR/2001/REC-SVG-20010904/DTD/svg10.dtd">
<svg version="1.0" xmlns="http://www.w3.org/2000/svg"
 width="150.000000pt" height="150.000000pt" viewBox="0 0 150.000000 150.000000"
 preserveAspectRatio="xMidYMid meet">
<metadata>
Created by potrace 1.14, written by Peter Selinger 2001-2017
</metadata>
<g transform="translate(0.000000,150.000000) scale(0.100000,-0.100000)"
fill="#000000" stroke="none">
<path d="M0 750 l0 -750 750 0 750 0 0 750 0 750 -750 0 -750 0 0 -750z m460
615 c0 -28 -33 -12 -38 18 -3 16 0 17 17 7 12 -6 21 -17 21 -25z m678 -30 c0
-13 -7 -26 -14 -29 -17 -6 -20 29 -4 39 8 5 7 12 -2 23 -11 15 -11 15 3 4 9
-7 17 -23 17 -37z m-678 -35 c0 -5 -5 -10 -11 -10 -5 0 -7 5 -4 10 3 6 8 10
11 10 2 0 4 -4 4 -10z m620 -38 c0 -15 -2 -15 -10 -2 -13 20 -13 33 0 25 6 -3
10 -14 10 -23z m-243 -41 c181 -27 302 -147 338 -337 53 -277 -50 -517 -252
-585 -146 -49 -350 -22 -446 59 -99 83 -145 191 -154 357 -14 272 100 453 312
499 84 17 120 19 202 7z m-737 -423 c0 -5 -13 -11 -30 -14 -16 -4 -30 -11 -30
-17 0 -6 -3 -7 -7 -4 -10 11 27 46 48 44 10 -1 19 -5 19 -9z m54 -23 c-4 -8
-11 -15 -16 -15 -6 0 -5 6 2 15 7 8 14 15 16 15 2 0 1 -7 -2 -15z m1208 -47
c-7 -7 -12 -8 -12 -2 0 14 12 26 19 19 2 -3 -1 -11 -7 -17z m101 -10 c-26 -25
-64 -18 -42 8 12 15 14 15 19 0 5 -14 7 -14 20 4 8 10 16 17 19 14 3 -2 -5
-14 -16 -26z m-1009 -483 c3 -8 1 -15 -4 -15 -6 0 -10 7 -10 15 0 8 2 15 4 15
2 0 6 -7 10 -15z m-44 -51 c0 -12 -7 -27 -15 -34 -13 -11 -15 -8 -15 19 0 21
4 30 11 25 8 -4 9 1 4 17 -5 19 -4 21 4 9 6 -8 11 -25 11 -36z m650 36 c0 -5
-2 -10 -4 -10 -3 0 -8 5 -11 10 -3 6 -1 10 4 10 6 0 11 -4 11 -10z m-5 -53 c8
2 23 -5 34 -16 l21 -21 -23 0 c-13 0 -34 12 -48 28 -13 15 -18 22 -10 15 7 -6
19 -9 26 -6z"/>
<path d="M677 1150 c-137 -35 -224 -146 -248 -316 -22 -157 12 -301 91 -387
68 -74 130 -101 235 -101 68 -1 89 3 137 27 106 52 168 149 187 292 29 209
-44 392 -182 460 -60 29 -159 40 -220 25z m196 -225 c28 -18 57 -81 57 -121 0
-42 -27 -93 -62 -114 -24 -15 -50 -20 -100 -20 l-67 0 -3 -62 c-3 -63 -3 -63
-35 -66 l-33 -3 0 195 c0 145 3 197 13 203 39 25 186 17 230 -12z"/>
<path d="M700 811 c0 -73 2 -79 23 -85 83 -22 132 17 128 102 -2 40 -35 62
-96 62 l-55 0 0 -79z"/>
</g>
</svg>
